<svg xmlns="http://www.w3.org/2000/svg" xmlns:xlink="http://www.w3.org/1999/xlink" viewBox="0 0 252.42 252.05"><defs><style>.cls-1{fill:url(#linear-gradient);}.cls-2{fill:url(#linear-gradient-2);}.cls-3{fill:url(#linear-gradient-3);}.cls-4{fill:url(#linear-gradient-4);}.cls-5{fill:url(#linear-gradient-5);}.cls-6{fill:url(#linear-gradient-6);}.cls-7{fill:url(#linear-gradient-7);}.cls-8{fill:url(#linear-gradient-8);}.cls-9{fill:url(#linear-gradient-9);}.cls-10{fill:url(#linear-gradient-10);}.cls-11{fill:url(#linear-gradient-11);}.cls-12{fill:url(#linear-gradient-12);}.cls-13{fill:url(#linear-gradient-13);}.cls-14{fill:url(#linear-gradient-14);}.cls-15{fill:url(#linear-gradient-15);}.cls-16{fill:url(#linear-gradient-16);}.cls-17{fill:url(#linear-gradient-17);}.cls-18{fill:url(#linear-gradient-18);}.cls-19{fill:url(#linear-gradient-19);}.cls-20{fill:url(#linear-gradient-20);}.cls-21{fill:url(#linear-gradient-21);}.cls-22{fill:url(#linear-gradient-22);}.cls-23{fill:url(#linear-gradient-23);}.cls-24{fill:url(#linear-gradient-24);}.cls-25{fill:url(#linear-gradient-25);}.cls-26{fill:url(#linear-gradient-26);}.cls-27{fill:url(#linear-gradient-27);}.cls-28{fill:url(#linear-gradient-28);}.cls-29{fill:url(#linear-gradient-29);}.cls-30{fill:url(#linear-gradient-30);}.cls-31{fill:url(#linear-gradient-31);}.cls-32{fill:url(#linear-gradient-32);}.cls-33{fill:url(#linear-gradient-33);}.cls-34{fill:url(#linear-gradient-34);}.cls-35{fill:url(#linear-gradient-35);}.cls-36{fill:url(#linear-gradient-36);}.cls-37{fill:url(#linear-gradient-37);}.cls-38{fill:url(#linear-gradient-38);}.cls-39{fill:url(#linear-gradient-39);}.cls-40{fill:url(#linear-gradient-40);}.cls-41{fill:url(#linear-gradient-41);}.cls-42{fill:url(#linear-gradient-42);}.cls-43{fill:url(#linear-gradient-43);}.cls-44{fill:url(#linear-gradient-44);}.cls-45{fill:url(#linear-gradient-45);}.cls-46{fill:url(#linear-gradient-46);}.cls-47{fill:url(#linear-gradient-47);}.cls-48{fill:url(#linear-gradient-48);}.cls-49{fill:url(#linear-gradient-49);}.cls-50{fill:url(#linear-gradient-50);}.cls-51{fill:url(#linear-gradient-51);}.cls-52{fill:url(#linear-gradient-52);}.cls-53{fill:url(#linear-gradient-53);}.cls-54{fill:url(#linear-gradient-54);}.cls-55{fill:url(#linear-gradient-55);}.cls-56{fill:url(#linear-gradient-56);}.cls-57{fill:url(#linear-gradient-57);}.cls-58{fill:url(#linear-gradient-58);}.cls-59{fill:url(#linear-gradient-59);}.cls-60{fill:url(#linear-gradient-60);}.cls-61{fill:url(#linear-gradient-61);}.cls-62{fill:url(#linear-gradient-62);}.cls-63{fill:url(#linear-gradient-63);}.cls-64{fill:url(#linear-gradient-64);}.cls-65{fill:url(#linear-gradient-65);}.cls-66{fill:url(#linear-gradient-66);}.cls-67{fill:url(#linear-gradient-67);}.cls-68{fill:url(#linear-gradient-68);}.cls-69{fill:url(#linear-gradient-69);}.cls-70{fill:url(#linear-gradient-70);}.cls-71{fill:url(#linear-gradient-71);}.cls-72{fill:url(#linear-gradient-72);}.cls-73{fill:url(#linear-gradient-73);}.cls-74{fill:url(#linear-gradient-74);}.cls-75{fill:url(#linear-gradient-75);}.cls-76{fill:url(#linear-gradient-76);}.cls-77{fill:url(#linear-gradient-77);}.cls-78{fill:url(#linear-gradient-78);}.cls-79{fill:url(#linear-gradient-79);}.cls-80{fill:url(#linear-gradient-80);}.cls-81{fill:url(#linear-gradient-81);}.cls-82{fill:url(#linear-gradient-82);}.cls-83{fill:url(#linear-gradient-83);}.cls-84{fill:url(#linear-gradient-84);}.cls-85{fill:url(#linear-gradient-85);}.cls-86{fill:url(#linear-gradient-86);}.cls-87{fill:url(#linear-gradient-87);}.cls-88{fill:url(#linear-gradient-88);}.cls-89{fill:url(#linear-gradient-89);}.cls-90{fill:url(#linear-gradient-90);}.cls-91{fill:url(#linear-gradient-91);}.cls-92{fill:url(#linear-gradient-92);}.cls-93{fill:url(#linear-gradient-93);}.cls-94{fill:url(#linear-gradient-94);}.cls-95{fill:url(#linear-gradient-95);}.cls-96{fill:url(#linear-gradient-96);}.cls-97{fill:url(#linear-gradient-97);}.cls-98{fill:url(#linear-gradient-98);}.cls-99{fill:url(#linear-gradient-99);}.cls-100{fill:url(#linear-gradient-100);}.cls-101{fill:url(#linear-gradient-101);}.cls-102{fill:url(#linear-gradient-102);}.cls-103{fill:url(#linear-gradient-103);}.cls-104{fill:url(#linear-gradient-104);}.cls-105{fill:url(#linear-gradient-105);}.cls-106{fill:url(#linear-gradient-106);}.cls-107{fill:url(#linear-gradient-107);}.cls-108{fill:url(#linear-gradient-108);}.cls-109{fill:url(#linear-gradient-109);}.cls-110{fill:url(#linear-gradient-110);}.cls-111{fill:url(#linear-gradient-111);}.cls-112{fill:url(#linear-gradient-112);}.cls-113{fill:url(#linear-gradient-113);}.cls-114{fill:url(#linear-gradient-114);}.cls-115{fill:url(#linear-gradient-115);}.cls-116{fill:url(#linear-gradient-116);}.cls-117{fill:url(#linear-gradient-117);}.cls-118{fill:url(#linear-gradient-118);}.cls-119{fill:url(#linear-gradient-119);}.cls-120{fill:url(#linear-gradient-120);}.cls-121{fill:url(#linear-gradient-121);}.cls-122{fill:url(#linear-gradient-122);}.cls-123{fill:url(#linear-gradient-123);}.cls-124{fill:url(#linear-gradient-124);}.cls-125{fill:url(#linear-gradient-125);}.cls-126{fill:url(#linear-gradient-126);}.cls-127{fill:url(#linear-gradient-127);}.cls-128{fill:url(#linear-gradient-128);}.cls-129{fill:url(#linear-gradient-129);}.cls-130{fill:url(#linear-gradient-130);}.cls-131{fill:url(#linear-gradient-131);}.cls-132{fill:url(#linear-gradient-132);}.cls-133{fill:url(#linear-gradient-133);}.cls-134{fill:url(#linear-gradient-134);}.cls-135{fill:url(#linear-gradient-135);}.cls-136{fill:url(#linear-gradient-136);}.cls-137{fill:url(#linear-gradient-137);}.cls-138{fill:url(#linear-gradient-138);}.cls-139{fill:url(#linear-gradient-139);}.cls-140{fill:url(#linear-gradient-140);}.cls-141{fill:url(#linear-gradient-141);}.cls-142{fill:url(#linear-gradient-142);}.cls-143{fill:url(#linear-gradient-143);}.cls-144{fill:url(#linear-gradient-144);}</style><linearGradient id="linear-gradient" x1="18.43" y1="119.6" x2="223.69" y2="119.6" gradientUnits="userSpaceOnUse"><stop offset="0" stop-color="#edc670"/><stop offset="0" stop-color="#fff5ac"/><stop offset="0.23" stop-color="#976f17"/><stop offset="0.41" stop-color="#aa701c"/><stop offset="0.59" stop-color="#d29743"/><stop offset="0.77" stop-color="#d8b15b"/><stop offset="1" stop-color="#8b5d00"/></linearGradient><linearGradient id="linear-gradient-2" x1="-55.58" y1="-3342.18" x2="149.69" y2="-3342.18" gradientTransform="translate(-3207.66 42.36) rotate(90.69)" xlink:href="#linear-gradient"/><linearGradient id="linear-gradient-3" x1="-4160.15" y1="-1448.7" x2="-3954.88" y2="-1448.7" gradientTransform="translate(-1646.32 -3797.49) rotate(-133.83)" xlink:href="#linear-gradient"/><linearGradient id="linear-gradient-4" x1="10.59" y1="112.63" x2="91.05" y2="9.91" xlink:href="#linear-gradient"/><linearGradient id="linear-gradient-5" x1="13.38" y1="117.87" x2="93.84" y2="15.15" xlink:href="#linear-gradient"/><linearGradient id="linear-gradient-6" x1="5.87" y1="115.61" x2="86.32" y2="12.89" xlink:href="#linear-gradient"/><linearGradient id="linear-gradient-7" x1="12.78" y1="123.68" x2="93.24" y2="20.96" xlink:href="#linear-gradient"/><linearGradient id="linear-gradient-8" x1="14.83" y1="128.44" x2="95.29" y2="25.71" xlink:href="#linear-gradient"/><linearGradient id="linear-gradient-9" x1="5.39" y1="124.29" x2="85.84" y2="21.57" xlink:href="#linear-gradient"/><linearGradient id="linear-gradient-10" x1="-14.18" y1="112.74" x2="66.28" y2="10.01" xlink:href="#linear-gradient"/><linearGradient id="linear-gradient-11" x1="-0.66" y1="125.58" x2="79.8" y2="22.85" xlink:href="#linear-gradient"/><linearGradient id="linear-gradient-12" x1="-22.71" y1="112.28" x2="57.75" y2="9.55" xlink:href="#linear-gradient"/><linearGradient id="linear-gradient-13" x1="-17.99" y1="121.1" x2="62.47" y2="18.38" xlink:href="#linear-gradient"/><linearGradient id="linear-gradient-14" x1="5.31" y1="134.43" x2="85.77" y2="31.7" xlink:href="#linear-gradient"/><linearGradient id="linear-gradient-15" x1="-20.82" y1="125.18" x2="59.64" y2="22.46" xlink:href="#linear-gradient"/><linearGradient id="linear-gradient-16" x1="-21.04" y1="127.7" x2="59.42" y2="24.98" xlink:href="#linear-gradient"/><linearGradient id="linear-gradient-17" x1="-15.44" y1="132.97" x2="64.99" y2="30.28" xlink:href="#linear-gradient"/><linearGradient id="linear-gradient-18" x1="-0.14" y1="143.07" x2="80.32" y2="40.34" xlink:href="#linear-gradient"/><linearGradient id="linear-gradient-19" x1="-16.97" y1="138.18" x2="63.49" y2="35.45" xlink:href="#linear-gradient"/><linearGradient id="linear-gradient-20" x1="11.8" y1="154.24" x2="92.26" y2="51.52" xlink:href="#linear-gradient"/><linearGradient id="linear-gradient-21" x1="-18.8" y1="143.56" x2="61.63" y2="40.88" xlink:href="#linear-gradient"/><linearGradient id="linear-gradient-22" x1="-9.53" y1="151.94" x2="70.93" y2="49.21" xlink:href="#linear-gradient"/><linearGradient id="linear-gradient-23" x1="-8.47" y1="155.55" x2="71.99" y2="52.83" xlink:href="#linear-gradient"/><linearGradient id="linear-gradient-24" x1="16.4" y1="162.6" x2="96.86" y2="59.88" xlink:href="#linear-gradient"/><linearGradient id="linear-gradient-25" x1="-4.24" y1="162.75" x2="76.23" y2="60.03" xlink:href="#linear-gradient"/><linearGradient id="linear-gradient-26" x1="-5.09" y1="165.95" x2="75.37" y2="63.22" xlink:href="#linear-gradient"/><linearGradient id="linear-gradient-27" x1="3.19" y1="170.39" x2="83.65" y2="67.66" xlink:href="#linear-gradient"/><linearGradient id="linear-gradient-28" x1="1.55" y1="173.41" x2="81.95" y2="70.75" xlink:href="#linear-gradient"/><linearGradient id="linear-gradient-29" x1="-1.72" y1="175.89" x2="78.74" y2="73.17" xlink:href="#linear-gradient"/><linearGradient id="linear-gradient-30" x1="20.1" y1="182.52" x2="100.56" y2="79.79" xlink:href="#linear-gradient"/><linearGradient id="linear-gradient-31" x1="8.39" y1="185.65" x2="88.85" y2="82.93" xlink:href="#linear-gradient"/><linearGradient id="linear-gradient-32" x1="13.77" y1="188.4" x2="94.24" y2="85.67" xlink:href="#linear-gradient"/><linearGradient id="linear-gradient-33" x1="24.33" y1="189.6" x2="104.79" y2="86.88" xlink:href="#linear-gradient"/><linearGradient id="linear-gradient-34" x1="19.12" y1="196.16" x2="99.58" y2="93.44" xlink:href="#linear-gradient"/><linearGradient id="linear-gradient-35" x1="17.46" y1="201.04" x2="97.92" y2="98.32" xlink:href="#linear-gradient"/><linearGradient id="linear-gradient-36" x1="33.98" y1="200.59" x2="114.43" y2="97.87" xlink:href="#linear-gradient"/><linearGradient id="linear-gradient-37" x1="28.14" y1="206.64" x2="108.6" y2="103.92" xlink:href="#linear-gradient"/><linearGradient id="linear-gradient-38" x1="33.57" y1="209.48" x2="114.03" y2="106.76" xlink:href="#linear-gradient"/><linearGradient id="linear-gradient-39" x1="34.41" y1="215.26" x2="114.9" y2="112.51" xlink:href="#linear-gradient"/><linearGradient id="linear-gradient-40" x1="38.91" y1="220.67" x2="119.37" y2="117.95" xlink:href="#linear-gradient"/><linearGradient id="linear-gradient-41" x1="50.49" y1="212.13" x2="130.95" y2="109.4" xlink:href="#linear-gradient"/><linearGradient id="linear-gradient-42" x1="57.15" y1="210.68" x2="137.62" y2="107.94" xlink:href="#linear-gradient"/><linearGradient id="linear-gradient-43" x1="57.76" y1="218.43" x2="138.22" y2="115.7" xlink:href="#linear-gradient"/><linearGradient id="linear-gradient-44" x1="65.24" y1="214.97" x2="145.71" y2="112.24" xlink:href="#linear-gradient"/><linearGradient id="linear-gradient-45" x1="57.94" y1="236.23" x2="138.4" y2="133.51" xlink:href="#linear-gradient"/><linearGradient id="linear-gradient-46" x1="69.53" y1="227" x2="149.99" y2="124.28" xlink:href="#linear-gradient"/><linearGradient id="linear-gradient-47" x1="70.09" y1="236.13" x2="150.55" y2="133.41" xlink:href="#linear-gradient"/><linearGradient id="linear-gradient-48" x1="75.56" y1="230.44" x2="156.02" y2="127.71" xlink:href="#linear-gradient"/><linearGradient id="linear-gradient-49" x1="77.37" y1="231.05" x2="157.86" y2="128.29" xlink:href="#linear-gradient"/><linearGradient id="linear-gradient-50" x1="82.55" y1="242.78" x2="163.01" y2="140.06" xlink:href="#linear-gradient"/><linearGradient id="linear-gradient-51" x1="86.52" y1="239.28" x2="166.99" y2="136.55" xlink:href="#linear-gradient"/><linearGradient id="linear-gradient-52" x1="91.72" y1="252.94" x2="172.19" y2="150.2" xlink:href="#linear-gradient"/><linearGradient id="linear-gradient-53" x1="93.88" y1="238.01" x2="174.34" y2="135.29" xlink:href="#linear-gradient"/><linearGradient id="linear-gradient-54" x1="98.54" y1="241.89" x2="179" y2="139.17" xlink:href="#linear-gradient"/><linearGradient id="linear-gradient-55" x1="104.25" y1="262.22" x2="184.71" y2="159.49" xlink:href="#linear-gradient"/><linearGradient id="linear-gradient-56" x1="108.39" y1="263.16" x2="188.84" y2="160.45" xlink:href="#linear-gradient"/><linearGradient id="linear-gradient-57" x1="113.55" y1="259.73" x2="194.01" y2="157" xlink:href="#linear-gradient"/><linearGradient id="linear-gradient-58" x1="117.29" y1="260.61" x2="197.75" y2="157.89" xlink:href="#linear-gradient"/><linearGradient id="linear-gradient-59" x1="107.86" y1="235.81" x2="188.31" y2="133.09" xlink:href="#linear-gradient"/><linearGradient id="linear-gradient-60" x1="128.75" y1="268.65" x2="209.21" y2="165.93" xlink:href="#linear-gradient"/><linearGradient id="linear-gradient-61" x1="115.32" y1="237.1" x2="195.77" y2="134.38" xlink:href="#linear-gradient"/><linearGradient id="linear-gradient-62" x1="129.08" y1="257.08" x2="209.53" y2="154.37" xlink:href="#linear-gradient"/><linearGradient id="linear-gradient-63" x1="130.49" y1="252.84" x2="210.94" y2="150.12" xlink:href="#linear-gradient"/><linearGradient id="linear-gradient-64" x1="137.83" y1="260.39" x2="218.29" y2="157.67" xlink:href="#linear-gradient"/><linearGradient id="linear-gradient-65" x1="144.74" y1="266.54" x2="225.2" y2="163.82" xlink:href="#linear-gradient"/><linearGradient id="linear-gradient-66" x1="149.03" y1="264.96" x2="229.52" y2="162.21" xlink:href="#linear-gradient"/><linearGradient id="linear-gradient-67" x1="145.47" y1="256.94" x2="225.93" y2="154.22" xlink:href="#linear-gradient"/><linearGradient id="linear-gradient-68" x1="153.69" y1="262.04" x2="234.15" y2="159.32" xlink:href="#linear-gradient"/><linearGradient id="linear-gradient-69" x1="149.22" y1="252.71" x2="229.68" y2="149.99" xlink:href="#linear-gradient"/><linearGradient id="linear-gradient-70" x1="138.9" y1="237.34" x2="219.36" y2="134.61" xlink:href="#linear-gradient"/><linearGradient id="linear-gradient-71" x1="148.57" y1="243.96" x2="229.03" y2="141.24" xlink:href="#linear-gradient"/><linearGradient id="linear-gradient-72" x1="148.25" y1="239.64" x2="228.7" y2="136.92" xlink:href="#linear-gradient"/><linearGradient id="linear-gradient-73" x1="146.06" y1="233.66" x2="226.52" y2="130.94" xlink:href="#linear-gradient"/><linearGradient id="linear-gradient-74" x1="144.16" y1="232.59" x2="224.6" y2="129.88" xlink:href="#linear-gradient"/><linearGradient id="linear-gradient-75" x1="163.13" y1="247.36" x2="243.59" y2="144.64" xlink:href="#linear-gradient"/><linearGradient id="linear-gradient-76" x1="156.15" y1="239.01" x2="236.61" y2="136.29" xlink:href="#linear-gradient"/><linearGradient id="linear-gradient-77" x1="148.86" y1="230.91" x2="229.33" y2="128.18" xlink:href="#linear-gradient"/><linearGradient id="linear-gradient-78" x1="176.61" y1="248.47" x2="257.07" y2="145.75" xlink:href="#linear-gradient"/><linearGradient id="linear-gradient-79" x1="186.5" y1="252.39" x2="266.96" y2="149.67" xlink:href="#linear-gradient"/><linearGradient id="linear-gradient-80" x1="156.5" y1="227.53" x2="236.95" y2="124.82" xlink:href="#linear-gradient"/><linearGradient id="linear-gradient-81" x1="173.9" y1="237.42" x2="254.38" y2="134.67" xlink:href="#linear-gradient"/><linearGradient id="linear-gradient-82" x1="166" y1="228.69" x2="246.46" y2="125.96" xlink:href="#linear-gradient"/><linearGradient id="linear-gradient-83" x1="160.92" y1="221.49" x2="241.38" y2="118.76" xlink:href="#linear-gradient"/><linearGradient id="linear-gradient-84" x1="164.01" y1="224.76" x2="244.47" y2="122.04" xlink:href="#linear-gradient"/><linearGradient id="linear-gradient-85" x1="167.29" y1="223.23" x2="247.74" y2="120.51" xlink:href="#linear-gradient"/><linearGradient id="linear-gradient-86" x1="155.96" y1="215.48" x2="236.42" y2="112.76" xlink:href="#linear-gradient"/><linearGradient id="linear-gradient-87" x1="159.29" y1="213.71" x2="239.75" y2="110.99" xlink:href="#linear-gradient"/><linearGradient id="linear-gradient-88" x1="180.43" y1="220.17" x2="260.89" y2="117.44" xlink:href="#linear-gradient"/><linearGradient id="linear-gradient-89" x1="166.25" y1="210.49" x2="246.7" y2="107.77" xlink:href="#linear-gradient"/><linearGradient id="linear-gradient-90" x1="157.15" y1="203.54" x2="237.61" y2="100.81" xlink:href="#linear-gradient"/><linearGradient id="linear-gradient-91" x1="153.58" y1="198.81" x2="234.03" y2="96.1" xlink:href="#linear-gradient"/><linearGradient id="linear-gradient-92" x1="183.39" y1="206.51" x2="263.84" y2="103.8" xlink:href="#linear-gradient"/><linearGradient id="linear-gradient-93" x1="184.4" y1="203.29" x2="264.86" y2="100.56" xlink:href="#linear-gradient"/><linearGradient id="linear-gradient-94" x1="169.97" y1="197.54" x2="250.43" y2="94.82" xlink:href="#linear-gradient"/><linearGradient id="linear-gradient-95" x1="179.27" y1="196" x2="259.73" y2="93.27" xlink:href="#linear-gradient"/><linearGradient id="linear-gradient-96" x1="164.51" y1="190.02" x2="244.96" y2="87.3" xlink:href="#linear-gradient"/><linearGradient id="linear-gradient-97" x1="141.66" y1="183.14" x2="222.1" y2="80.43" xlink:href="#linear-gradient"/><linearGradient id="linear-gradient-98" x1="141.98" y1="179.91" x2="222.44" y2="77.19" xlink:href="#linear-gradient"/><linearGradient id="linear-gradient-99" x1="144.65" y1="177.03" x2="225.09" y2="74.33" xlink:href="#linear-gradient"/><linearGradient id="linear-gradient-100" x1="155.89" y1="176.62" x2="236.36" y2="73.89" xlink:href="#linear-gradient"/><linearGradient id="linear-gradient-101" x1="163.33" y1="170.43" x2="243.79" y2="67.7" xlink:href="#linear-gradient"/><linearGradient id="linear-gradient-102" x1="151.86" y1="169.2" x2="232.32" y2="66.47" xlink:href="#linear-gradient"/><linearGradient id="linear-gradient-103" x1="151.14" y1="164.72" x2="231.6" y2="62" xlink:href="#linear-gradient"/><linearGradient id="linear-gradient-104" x1="150.5" y1="160.72" x2="230.96" y2="57.99" xlink:href="#linear-gradient"/><linearGradient id="linear-gradient-105" x1="148.65" y1="156.38" x2="229.11" y2="53.66" xlink:href="#linear-gradient"/><linearGradient id="linear-gradient-106" x1="142.09" y1="154.35" x2="222.55" y2="51.63" xlink:href="#linear-gradient"/><linearGradient id="linear-gradient-107" x1="131.21" y1="152.74" x2="211.67" y2="50.01" xlink:href="#linear-gradient"/><linearGradient id="linear-gradient-108" x1="132.85" y1="147.38" x2="213.31" y2="44.66" xlink:href="#linear-gradient"/><linearGradient id="linear-gradient-109" x1="126.6" y1="149.62" x2="207.07" y2="46.89" xlink:href="#linear-gradient"/><linearGradient id="linear-gradient-110" x1="128.01" y1="137.13" x2="208.47" y2="34.41" xlink:href="#linear-gradient"/><linearGradient id="linear-gradient-111" x1="126.45" y1="130.73" x2="206.92" y2="28" xlink:href="#linear-gradient"/><linearGradient id="linear-gradient-112" x1="112.96" y1="144.17" x2="193.41" y2="41.45" xlink:href="#linear-gradient"/><linearGradient id="linear-gradient-113" x1="111.91" y1="135.37" x2="192.37" y2="32.64" xlink:href="#linear-gradient"/><linearGradient id="linear-gradient-114" x1="109.86" y1="128.66" x2="190.32" y2="25.94" xlink:href="#linear-gradient"/><linearGradient id="linear-gradient-115" x1="105.06" y1="126.69" x2="185.52" y2="23.96" xlink:href="#linear-gradient"/><linearGradient id="linear-gradient-116" x1="105.35" y1="116.13" x2="185.8" y2="13.43" xlink:href="#linear-gradient"/><linearGradient id="linear-gradient-117" x1="95.06" y1="122.51" x2="175.52" y2="19.78" xlink:href="#linear-gradient"/><linearGradient id="linear-gradient-118" x1="94.53" y1="134.35" x2="174.99" y2="31.63" xlink:href="#linear-gradient"/><linearGradient id="linear-gradient-119" x1="87.7" y1="104.61" x2="168.16" y2="1.88" xlink:href="#linear-gradient"/><linearGradient id="linear-gradient-120" x1="84.78" y1="110.64" x2="165.24" y2="7.91" xlink:href="#linear-gradient"/><linearGradient id="linear-gradient-121" x1="81.88" y1="116.88" x2="162.34" y2="14.16" xlink:href="#linear-gradient"/><linearGradient id="linear-gradient-122" x1="78.3" y1="122.78" x2="158.77" y2="20.05" xlink:href="#linear-gradient"/><linearGradient id="linear-gradient-123" x1="74.55" y1="120.41" x2="155.01" y2="17.69" xlink:href="#linear-gradient"/><linearGradient id="linear-gradient-124" x1="68.66" y1="100.15" x2="149.12" y2="-2.58" xlink:href="#linear-gradient"/><linearGradient id="linear-gradient-125" x1="64.11" y1="94.94" x2="144.57" y2="-7.79" xlink:href="#linear-gradient"/><linearGradient id="linear-gradient-126" x1="61.85" y1="112.74" x2="142.31" y2="10.01" xlink:href="#linear-gradient"/><linearGradient id="linear-gradient-127" x1="63.29" y1="114.18" x2="143.75" y2="11.46" xlink:href="#linear-gradient"/><linearGradient id="linear-gradient-128" x1="52.89" y1="101.03" x2="133.34" y2="-1.68" xlink:href="#linear-gradient"/><linearGradient id="linear-gradient-129" x1="60.19" y1="122.23" x2="140.65" y2="19.5" xlink:href="#linear-gradient"/><linearGradient id="linear-gradient-130" x1="54.75" y1="118.95" x2="135.22" y2="16.21" xlink:href="#linear-gradient"/><linearGradient id="linear-gradient-131" x1="51.98" y1="119.79" x2="132.44" y2="17.07" xlink:href="#linear-gradient"/><linearGradient id="linear-gradient-132" x1="35.38" y1="93.97" x2="115.85" y2="-8.77" xlink:href="#linear-gradient"/><linearGradient id="linear-gradient-133" x1="29.11" y1="87.83" x2="109.57" y2="-14.9" xlink:href="#linear-gradient"/><linearGradient id="linear-gradient-134" x1="25.82" y1="88.8" x2="106.27" y2="-13.91" xlink:href="#linear-gradient"/><linearGradient id="linear-gradient-135" x1="20.46" y1="84.71" x2="100.92" y2="-18.01" xlink:href="#linear-gradient"/><linearGradient id="linear-gradient-136" x1="20.84" y1="93.82" x2="101.28" y2="-8.88" xlink:href="#linear-gradient"/><linearGradient id="linear-gradient-137" x1="17.19" y1="93.86" x2="97.65" y2="-8.86" xlink:href="#linear-gradient"/><linearGradient id="linear-gradient-138" x1="30.55" y1="112.23" x2="111.02" y2="9.5" xlink:href="#linear-gradient"/><linearGradient id="linear-gradient-139" x1="20.06" y1="104.85" x2="100.51" y2="2.13" xlink:href="#linear-gradient"/><linearGradient id="linear-gradient-140" x1="31.1" y1="121.43" x2="111.55" y2="18.72" xlink:href="#linear-gradient"/><linearGradient id="linear-gradient-141" x1="-1.64" y1="89.08" x2="78.81" y2="-13.64" xlink:href="#linear-gradient"/><linearGradient id="linear-gradient-142" x1="10.61" y1="106.61" x2="91.07" y2="3.89" xlink:href="#linear-gradient"/><linearGradient id="linear-gradient-143" x1="12.15" y1="111.72" x2="92.6" y2="9.02" xlink:href="#linear-gradient"/><linearGradient id="linear-gradient-144" x1="1.17" y1="103.06" x2="81.64" y2="0.32" xlink:href="#linear-gradient"/></defs><title>資產 1</title><g id="圖層_2" data-name="圖層 2"><g id="Layer_1" data-name="Layer 1"><path class="cls-1" d="M121.06,222.24A102.64,102.64,0,1,1,223.69,119.6,102.75,102.75,0,0,1,121.06,222.24Zm0-204.57A101.94,101.94,0,1,0,223,119.6,102.05,102.05,0,0,0,121.06,17.67Z"/><path class="cls-2" d="M133.65,232.16h-1.26a102.42,102.42,0,1,1,1.26,0Zm-1.25-.71h1.25a102.44,102.44,0,1,0-1.25,0Z"/><path class="cls-3" d="M118.47,235.46c-.72,0-1.43,0-2.15,0a102.8,102.8,0,1,1,2.15,0ZM118.4,30.94A101.89,101.89,0,1,0,192,62.24,101.53,101.53,0,0,0,118.4,30.94Z"/><path class="cls-4" d="M56,55.08a.29.29,0,0,1-.57,0,.29.29,0,0,1,.57,0Z"/><circle class="cls-5" cx="56.98" cy="62.21" r="0.48"/><path class="cls-6" d="M48.25,62.19a.55.55,0,0,1-.55.56.56.56,0,0,1,0-1.11A.55.55,0,0,1,48.25,62.19Z"/><circle class="cls-7" cx="53.33" cy="71.91" r="0.64"/><circle class="cls-8" cx="53.85" cy="78.63" r="0.22"/><path class="cls-9" d="M43.4,76.49a.58.58,0,0,1-.57.57.58.58,0,0,1,0-1.15A.58.58,0,0,1,43.4,76.49Z"/><path class="cls-10" d="M22.32,67.28a.89.89,0,1,1-.89-.9A.89.89,0,0,1,22.32,67.28Z"/><circle class="cls-11" cx="33.86" cy="81.51" r="0.83"/><path class="cls-12" d="M10.79,70.67a.91.91,0,1,1-1.81,0,.91.91,0,0,1,1.81,0Z"/><path class="cls-13" d="M12.73,82.67a.62.62,0,1,1-.61-.62A.61.61,0,0,1,12.73,82.67Z"/><path class="cls-14" d="M38.65,92.94a.85.85,0,1,1-.85-.84A.85.85,0,0,1,38.65,92.94Z"/><circle class="cls-15" cx="6.22" cy="90.65" r="0.07"/><circle class="cls-16" cx="4.7" cy="94.84" r="0.43"/><circle class="cls-17" cx="9.86" cy="100.67" r="0.11"/><path class="cls-18" d="M26.25,109.59a.16.16,0,0,1-.17.16.16.16,0,0,1-.16-.16.16.16,0,0,1,.16-.17A.16.16,0,0,1,26.25,109.59Z"/><path class="cls-19" d="M6,109.84a.81.81,0,1,1-.8-.81A.8.8,0,0,1,6,109.84Z"/><path class="cls-20" d="M37.49,121.88a.35.35,0,0,1-.35.35.35.35,0,0,1-.34-.35.34.34,0,0,1,.34-.34A.35.35,0,0,1,37.49,121.88Z"/><path class="cls-21" d="M.15,119.46a.08.08,0,0,1-.07.08.08.08,0,0,1,0-.16A.08.08,0,0,1,.15,119.46Z"/><path class="cls-22" d="M9.54,128.51a.73.73,0,0,1-.72.73.73.73,0,0,1-.73-.73.73.73,0,0,1,.73-.72A.72.72,0,0,1,9.54,128.51Z"/><path class="cls-23" d="M9.19,133.85a.66.66,0,1,1-.66-.66A.65.65,0,0,1,9.19,133.85Z"/><path class="cls-24" d="M40,133.19a.52.52,0,1,1-.52-.52A.52.52,0,0,1,40,133.19Z"/><path class="cls-25" d="M11.68,143.46a.8.8,0,1,1-.8-.8A.8.8,0,0,1,11.68,143.46Z"/><path class="cls-26" d="M8.59,149.05a.44.44,0,1,1-.44-.44A.44.44,0,0,1,8.59,149.05Z"/><circle class="cls-27" cx="17.42" cy="152.22" r="0.21"/><path class="cls-28" d="M13.72,157.93a.05.05,0,1,1-.05-.05A0,0,0,0,1,13.72,157.93Z"/><path class="cls-29" d="M8.35,163.52a.38.38,0,1,1-.38-.38A.38.38,0,0,1,8.35,163.52Z"/><path class="cls-30" d="M35,163.66a.09.09,0,1,1-.09-.09A.09.09,0,0,1,35,163.66Z"/><path class="cls-31" d="M18.08,174.42a.9.9,0,1,1-.89-.89A.89.89,0,0,1,18.08,174.42Z"/><path class="cls-32" d="M23.33,176.26a0,0,0,0,1,0,.05.05.05,0,0,1-.05-.05s0,0,.05,0A0,0,0,0,1,23.33,176.26Z"/><path class="cls-33" d="M38.05,173.08a.78.78,0,1,1-.78-.78A.78.78,0,0,1,38.05,173.08Z"/><path class="cls-34" d="M27.62,186.23a.72.72,0,1,1-.72-.72A.72.72,0,0,1,27.62,186.23Z"/><circle class="cls-35" cx="22.24" cy="194.94" r="0.84"/><path class="cls-36" d="M45.39,186.2a.15.15,0,0,1-.14.15.15.15,0,0,1,0-.3A.15.15,0,0,1,45.39,186.2Z"/><path class="cls-37" d="M34.68,198.82a.42.42,0,0,1-.42.42.41.41,0,0,1-.41-.42.41.41,0,0,1,.41-.41A.41.41,0,0,1,34.68,198.82Z"/><circle class="cls-38" cx="40.37" cy="200.8" r="0.77"/><path class="cls-39" d="M38.8,209.74a.07.07,0,0,1-.07.07.07.07,0,0,1-.06-.07.06.06,0,0,1,.06-.06A.07.07,0,0,1,38.8,209.74Z"/><path class="cls-40" d="M42.62,216.33a.31.31,0,1,1-.31-.31A.31.31,0,0,1,42.62,216.33Z"/><path class="cls-41" d="M62.9,196.87a.46.46,0,1,1-.46-.46A.46.46,0,0,1,62.9,196.87Z"/><path class="cls-42" d="M72.75,191.28a.4.4,0,0,1-.4.4.4.4,0,0,1,0-.8A.4.4,0,0,1,72.75,191.28Z"/><path class="cls-43" d="M69.6,203.55a.18.18,0,0,1-.19.18.18.18,0,0,1-.18-.18.18.18,0,0,1,.18-.19A.18.18,0,0,1,69.6,203.55Z"/><path class="cls-44" d="M81.65,194.32a.23.23,0,0,1-.23.23.23.23,0,0,1-.24-.23.24.24,0,0,1,.24-.24A.23.23,0,0,1,81.65,194.32Z"/><path class="cls-45" d="M61.16,232.29a.13.13,0,0,1-.13.13.13.13,0,1,1,0-.26A.13.13,0,0,1,61.16,232.29Z"/><path class="cls-46" d="M81.67,211.72a.18.18,0,0,1-.17.18.18.18,0,0,1-.18-.18.18.18,0,0,1,.18-.17A.18.18,0,0,1,81.67,211.72Z"/><circle class="cls-47" cx="77.84" cy="226.23" r="0.51"/><circle class="cls-48" cx="88.15" cy="214.36" r="0.62"/><path class="cls-49" d="M90.4,214.46s0,0,0,0a0,0,0,0,1,0,0,0,0,0,0,1,.07,0Z"/><path class="cls-50" d="M92.24,231a.44.44,0,0,1-.43.44.44.44,0,0,1-.44-.44.44.44,0,0,1,.44-.43A.43.43,0,0,1,92.24,231Z"/><path class="cls-51" d="M99.29,223.36a.3.3,0,0,1-.59,0,.3.3,0,1,1,.59,0Z"/><path class="cls-52" d="M99.65,243a.11.11,0,0,1-.11.11.11.11,0,0,1-.12-.11.12.12,0,0,1,.12-.12A.11.11,0,0,1,99.65,243Z"/><circle class="cls-53" cx="109.77" cy="217.73" r="0.83"/><circle class="cls-54" cx="114.32" cy="221.75" r="0.32"/><path class="cls-55" d="M112.46,251.91a.14.14,0,1,1-.14-.14A.14.14,0,0,1,112.46,251.91Z"/><path class="cls-56" d="M117.66,251.42a.08.08,0,0,1-.07.08.09.09,0,0,1-.08-.08.08.08,0,0,1,.08-.07A.07.07,0,0,1,117.66,251.42Z"/><path class="cls-57" d="M126.7,243.36a.33.33,0,0,1-.33.33.34.34,0,0,1,0-.67A.33.33,0,0,1,126.7,243.36Z"/><path class="cls-58" d="M131.71,243a.61.61,0,1,1-.61-.61A.61.61,0,0,1,131.71,243Z"/><circle class="cls-59" cx="130.12" cy="207.38" r="0.14"/><path class="cls-60" d="M143.89,250.44a.88.88,0,1,1-.88-.88A.88.88,0,0,1,143.89,250.44Z"/><circle class="cls-61" cx="139.79" cy="205.85" r="0.77"/><path class="cls-62" d="M149.28,231.55a.2.2,0,1,1-.2-.2A.2.2,0,0,1,149.28,231.55Z"/><circle class="cls-63" cx="153.09" cy="223.98" r="0.89"/><path class="cls-64" d="M160.27,232.65a.71.71,0,0,1-.71.7.71.71,0,0,1,0-1.41A.71.71,0,0,1,160.27,232.65Z"/><circle class="cls-65" cx="166.11" cy="239.25" r="0.4"/><path class="cls-66" d="M172.93,234.59a.11.11,0,1,1-.11-.11A.11.11,0,0,1,172.93,234.59Z"/><path class="cls-67" d="M172.15,223.35a.36.36,0,0,1-.37.37.37.37,0,0,1-.38-.37.38.38,0,0,1,.38-.38A.37.37,0,0,1,172.15,223.35Z"/><circle class="cls-68" cx="180.65" cy="227.62" r="0.79"/><path class="cls-69" d="M179.12,214.68a.1.1,0,0,1-.11.1.1.1,0,0,1,0-.2A.1.1,0,0,1,179.12,214.68Z"/><path class="cls-70" d="M173.06,194.78a.83.83,0,0,1-.83.84.84.84,0,1,1,0-1.67A.83.83,0,0,1,173.06,194.78Z"/><circle class="cls-71" cx="182.36" cy="200.83" r="0.23"/><path class="cls-72" d="M184.53,194a.52.52,0,1,1-.52-.52A.52.52,0,0,1,184.53,194Z"/><path class="cls-73" d="M184.6,185.36a.7.7,0,1,1-.7-.7A.7.7,0,0,1,184.6,185.36Z"/><circle class="cls-74" cx="181.77" cy="184.56" r="0.26"/><circle class="cls-75" cx="200.8" cy="199.27" r="0.87"/><path class="cls-76" d="M195.48,189.12a.26.26,0,1,1-.26-.26A.27.27,0,0,1,195.48,189.12Z"/><path class="cls-77" d="M189.19,179.53a.08.08,0,0,1-.09.08.08.08,0,0,1-.08-.08.09.09,0,0,1,.08-.08A.09.09,0,0,1,189.19,179.53Z"/><path class="cls-78" d="M219.25,194.52a.38.38,0,1,1-.38-.38A.38.38,0,0,1,219.25,194.52Z"/><path class="cls-79" d="M231.52,196.06a.9.9,0,1,1-.9-.9A.9.9,0,0,1,231.52,196.06Z"/><path class="cls-80" d="M201.46,170.38a.2.2,0,1,1-.2-.2A.2.2,0,0,1,201.46,170.38Z"/><path class="cls-81" d="M220.56,177.91a0,0,0,0,1-.05,0,0,0,0,0,1,0,0,0,0,0,0,1,0,0A0,0,0,0,1,220.56,177.91Z"/><path class="cls-82" d="M214.42,167.62a.59.59,0,1,1-.59-.58A.58.58,0,0,1,214.42,167.62Z"/><path class="cls-83" d="M211.08,158.43a.77.77,0,1,1-.77-.77A.77.77,0,0,1,211.08,158.43Z"/><path class="cls-84" d="M213.17,162.23a.17.17,0,0,1-.18.17.16.16,0,0,1-.17-.17.17.17,0,0,1,.17-.18A.18.18,0,0,1,213.17,162.23Z"/><path class="cls-85" d="M218.41,158.17a.16.16,0,0,1-.32,0,.16.16,0,1,1,.32,0Z"/><path class="cls-86" d="M207.26,151.11a.88.88,0,1,1-.88-.88A.87.87,0,0,1,207.26,151.11Z"/><path class="cls-87" d="M212.48,146.63a.65.65,0,1,1-.65-.65A.65.65,0,0,1,212.48,146.63Z"/><path class="cls-88" d="M238.15,146.81a.26.26,0,1,1-.26-.26A.26.26,0,0,1,238.15,146.81Z"/><path class="cls-89" d="M223.11,138a.11.11,0,1,1-.11-.11A.11.11,0,0,1,223.11,138Z"/><path class="cls-90" d="M214.71,131.18a.89.89,0,1,1-.89-.89A.88.88,0,0,1,214.71,131.18Z"/><path class="cls-91" d="M211.33,125.27a.16.16,0,0,1-.15.16.16.16,0,0,1-.16-.16.16.16,0,0,1,.16-.15A.15.15,0,0,1,211.33,125.27Z"/><path class="cls-92" d="M249.06,123.28a.48.48,0,0,1-.48.47.48.48,0,0,1,0-1A.48.48,0,0,1,249.06,123.28Z"/><path class="cls-93" d="M252.42,117.54a.86.86,0,1,1-.86-.85A.86.86,0,0,1,252.42,117.54Z"/><path class="cls-94" d="M235,115.25a.61.61,0,1,1-.6-.61A.6.6,0,0,1,235,115.25Z"/><circle class="cls-95" cx="248.02" cy="108.22" r="0.86"/><path class="cls-96" d="M230.67,105.71a.13.13,0,1,1-.26,0,.13.13,0,0,1,.26,0Z"/><circle class="cls-97" cx="202.32" cy="105.69" r="0.08"/><path class="cls-98" d="M205,100.28a.63.63,0,1,1-.63-.63A.63.63,0,0,1,205,100.28Z"/><path class="cls-99" d="M209.45,94.36s0,0,0,0a0,0,0,0,1,0,0s0,0,0,0A0,0,0,0,1,209.45,94.36Z"/><path class="cls-100" d="M225.52,88.18a.36.36,0,0,1-.71,0,.36.36,0,0,1,.71,0Z"/><circle class="cls-101" cx="238.43" cy="74.55" r="0.47"/><path class="cls-102" d="M224,78.12a.81.81,0,1,1-.81-.81A.81.81,0,0,1,224,78.12Z"/><path class="cls-103" d="M225.06,71.22a.68.68,0,1,1-.68-.68A.68.68,0,0,1,225.06,71.22Z"/><path class="cls-104" d="M226.23,65.05a.79.79,0,0,1-.8.79.79.79,0,0,1-.79-.79.79.79,0,0,1,.79-.8A.8.8,0,0,1,226.23,65.05Z"/><path class="cls-105" d="M225.47,58.92a.48.48,0,0,1-.48.49.49.49,0,1,1,0-1A.48.48,0,0,1,225.47,58.92Z"/><path class="cls-106" d="M217.68,58.82a.76.76,0,1,1-.76-.76A.76.76,0,0,1,217.68,58.82Z"/><circle class="cls-107" cx="202.69" cy="61.48" r="0.29"/><circle class="cls-108" cx="207.55" cy="52.02" r="0.86"/><path class="cls-109" d="M198.24,58.66a.4.4,0,1,1-.79,0,.4.4,0,0,1,.79,0Z"/><path class="cls-110" d="M206.65,37.77a.81.81,0,1,1-.81-.81A.81.81,0,0,1,206.65,37.77Z"/><circle class="cls-111" cx="206.81" cy="28.14" r="0.23"/><path class="cls-112" d="M182.2,56.48a.56.56,0,1,1-.56-.56A.56.56,0,0,1,182.2,56.48Z"/><path class="cls-113" d="M185.33,42.72a.85.85,0,1,1-.85-.85A.85.85,0,0,1,185.33,42.72Z"/><circle class="cls-114" cx="184.9" cy="32.85" r="0.3"/><circle class="cls-115" cx="179.24" cy="31.98" r="0.45"/><path class="cls-116" d="M184.86,14.79a.13.13,0,1,1-.13-.13A.13.13,0,0,1,184.86,14.79Z"/><circle class="cls-117" cx="167.47" cy="30.07" r="0.85"/><path class="cls-118" d="M161.74,49.52a.76.76,0,1,1-.76-.77A.76.76,0,0,1,161.74,49.52Z"/><circle class="cls-119" cx="165.99" cy="4.64" r="0.73"/><circle class="cls-120" cx="159.04" cy="15.82" r="0.19"/><path class="cls-121" d="M152.36,27.35A.36.36,0,1,1,152,27,.36.36,0,0,1,152.36,27.35Z"/><path class="cls-122" d="M144.38,38.63a.16.16,0,0,1-.32,0,.16.16,0,0,1,.32,0Z"/><circle class="cls-123" cx="140.17" cy="36.64" r="0.38"/><circle class="cls-124" cx="141.89" cy="6.66" r="0.72"/><circle class="cls-125" cx="138.14" cy="0.42" r="0.42"/><path class="cls-126" d="M127.15,30.36a.78.78,0,1,1-.78-.78A.78.78,0,0,1,127.15,30.36Z"/><circle class="cls-127" cx="127.65" cy="32.01" r="0.17"/><path class="cls-128" d="M119.92,15.77a.25.25,0,1,1-.25-.25A.25.25,0,0,1,119.92,15.77Z"/><path class="cls-129" d="M119.93,46.55a.47.47,0,1,1-.46-.47A.47.47,0,0,1,119.93,46.55Z"/><path class="cls-130" d="M113.64,43.85a.07.07,0,1,1-.07-.07A.07.07,0,0,1,113.64,43.85Z"/><path class="cls-131" d="M109.66,46.59a.34.34,0,1,1-.34-.34A.34.34,0,0,1,109.66,46.59Z"/><circle class="cls-132" cx="98.96" cy="12.8" r="0.29"/><circle class="cls-133" cx="93.27" cy="5.91" r="0.24"/><circle class="cls-134" cx="88.25" cy="9.1" r="0.37"/><circle class="cls-135" cx="82.85" cy="5.06" r="0.61"/><path class="cls-136" d="M79,19.66a.07.07,0,0,1-.08.08.07.07,0,0,1-.07-.08.08.08,0,0,1,.07-.08A.08.08,0,0,1,79,19.66Z"/><path class="cls-137" d="M74.73,21.48a.85.85,0,1,1-.84-.85A.85.85,0,0,1,74.73,21.48Z"/><path class="cls-138" d="M83.65,44.73a.23.23,0,1,1-.45,0,.22.22,0,0,1,.22-.22A.22.22,0,0,1,83.65,44.73Z"/><path class="cls-139" d="M72.75,37.89a.24.24,0,0,1-.48,0,.24.24,0,1,1,.48,0Z"/><path class="cls-140" d="M80.08,59.39a.39.39,0,1,1-.39-.39A.39.39,0,0,1,80.08,59.39Z"/><path class="cls-141" d="M50.63,22.87a.42.42,0,1,1-.83,0,.42.42,0,0,1,.83,0Z"/><path class="cls-142" d="M59.39,45.32a.78.78,0,1,1-.78-.77A.77.77,0,0,1,59.39,45.32Z"/><circle class="cls-143" cx="58.25" cy="52.87" r="0.06"/><path class="cls-144" d="M47.37,44.13a0,0,0,0,1,0,0,0,0,0,0,1,0-.1A0,0,0,0,1,47.37,44.13Z"/></g></g></svg>